# xmcd
#
# Track frame offsets:
#	150
#	18729
#	36294
#	51963
#	63588
#	80040
#	93917
#	107485
#	120159
#	138225
#	147780
#	163071
#	177985
#	190826
#	209396
#
# Disc length: 2963
#
# Revision: 2
# Processed by: cddbd v1.5.1PL0 Copyright (c) Steve Scherf et al.
# Submitted via: dBpowerAMP V4.0
# Normalized: r0:TRMNUM;r1:TDELIM( - )
#
DISCID=d00b910f
DTITLE=Various Artist - Let`s Line Dance 1/3
DYEAR=1900
DGENRE=Line Dance
TTITLE0=Shaun Burne - The Hurting Part
TTITLE1=Martin White - There You Go
TTITLE2=Capricon - Line Dancin`Days
TTITLE3=Chris Sayer - Love Kept It`s Hold On My Heart
TTITLE4=Watermelon Henry - Goin`Country
TTITLE5=Aaron J Woolley - Louisiana
TTITLE6=Anton and The Buzz Band - Country Married Rock N Roll
TTITLE7=T. J. McCall - Country Music Hall Of Fame
TTITLE8=Bobby Lee - This Don`t Feel Like Dancin`
TTITLE9=Hollywood Hillbillies - No Honky Tonks In Heaven
TTITLE10=Simon Richmond - God Times Comes Around
TTITLE11=Watermelon Henry - Love My Car
TTITLE12=Quinton Horton - I Learnt A Thing Or Two
TTITLE13=David Christie - Saddle Up (Country Style)
TTITLE14=Hollywood Hillbillies - Three Time Loser
EXTD=
EXTT0=
EXTT1=
EXTT2=
EXTT3=
EXTT4=
EXTT5=
EXTT6=
EXTT7=
EXTT8=
EXTT9=
EXTT10=
EXTT11=
EXTT12=
EXTT13=
EXTT14=
PLAYORDER=
